<svg id="svg" version="1.1" xmlns="http://www.w3.org/2000/svg" xmlns:xlink="http://www.w3.org/1999/xlink" width="400" height="288.1516587677725" viewBox="0, 0, 400,288.1516587677725"><g id="svgg"><path id="path0" d="M129.319 66.602 C 127.614 66.733,125.085 67.046,123.700 67.298 C 122.315 67.549,120.122 67.935,118.827 68.154 C 117.532 68.373,115.958 68.815,115.329 69.136 C 114.701 69.457,113.334 69.855,112.294 70.022 C 111.015 70.226,109.625 70.742,108.010 71.612 C 106.695 72.321,104.824 73.280,103.852 73.743 C 102.880 74.206,101.991 74.738,101.875 74.925 C 101.760 75.111,101.129 75.501,100.473 75.792 C 99.735 76.118,98.068 77.554,96.110 79.549 C 94.366 81.326,92.594 83.129,92.173 83.556 C 91.751 83.983,91.202 84.822,90.952 85.420 C 90.702 86.018,90.172 86.894,89.773 87.368 C 89.375 87.841,89.049 88.460,89.049 88.742 C 89.049 89.025,88.672 89.963,88.210 90.828 C 87.749 91.693,87.285 93.040,87.179 93.822 C 87.073 94.605,86.661 96.386,86.263 97.782 C 84.781 102.974,85.957 117.871,88.030 120.161 C 88.292 120.451,88.746 121.477,89.037 122.440 C 89.599 124.296,89.830 124.648,92.832 128.225 C 94.530 130.250,95.529 131.217,98.703 133.913 C 99.992 135.008,102.652 136.599,103.192 136.599 C 103.453 136.599,104.120 136.908,104.676 137.285 C 105.231 137.661,106.189 138.129,106.805 138.324 C 107.421 138.519,108.384 138.988,108.946 139.366 C 109.508 139.744,110.627 140.249,111.433 140.489 C 112.239 140.728,113.061 141.119,113.260 141.358 C 113.458 141.597,114.349 142.002,115.239 142.258 C 116.130 142.515,117.351 142.973,117.952 143.276 C 118.553 143.580,119.779 143.964,120.678 144.130 C 121.576 144.296,122.918 144.739,123.659 145.115 C 124.401 145.491,125.808 145.927,126.785 146.085 C 127.763 146.242,128.987 146.633,129.505 146.953 C 130.022 147.273,131.150 147.685,132.010 147.868 C 132.870 148.051,134.157 148.503,134.870 148.872 C 135.584 149.240,136.816 149.682,137.608 149.853 C 138.401 150.024,139.390 150.411,139.807 150.714 C 140.224 151.016,141.391 151.476,142.401 151.737 C 143.410 151.997,144.451 152.403,144.713 152.638 C 144.976 152.873,145.774 153.241,146.486 153.456 C 147.199 153.670,148.333 154.245,149.006 154.733 C 149.680 155.221,150.348 155.620,150.492 155.620 C 150.786 155.620,152.355 156.803,154.830 158.892 C 156.628 160.409,158.891 163.197,159.219 164.299 C 159.332 164.677,159.758 165.480,160.167 166.085 C 161.125 167.500,161.834 173.427,161.381 176.221 C 161.226 177.174,161.098 178.669,161.097 179.543 C 161.096 180.613,160.904 181.462,160.512 182.137 C 160.192 182.689,159.615 183.810,159.231 184.628 C 158.847 185.445,158.384 186.206,158.203 186.318 C 158.022 186.430,157.658 187.019,157.395 187.627 C 156.948 188.659,151.952 193.372,151.305 193.372 C 151.166 193.372,150.666 193.698,150.192 194.096 C 149.719 194.494,148.769 195.018,148.081 195.260 C 147.393 195.503,146.376 196.005,145.821 196.377 C 145.267 196.748,144.249 197.135,143.561 197.237 C 142.872 197.339,141.554 197.740,140.630 198.128 C 139.424 198.636,137.993 198.919,135.542 199.135 C 133.667 199.300,130.934 199.578,129.468 199.753 C 127.310 200.010,125.885 199.980,121.975 199.593 C 114.245 198.828,112.749 198.604,111.305 197.995 C 110.556 197.679,109.057 197.283,107.974 197.116 C 106.892 196.949,105.400 196.500,104.660 196.118 C 103.920 195.737,102.834 195.339,102.247 195.233 C 101.537 195.106,101.018 194.787,100.695 194.279 C 100.428 193.859,99.910 193.256,99.545 192.939 C 98.934 192.410,98.856 192.010,98.593 188.040 C 98.435 185.663,98.040 182.524,97.714 181.066 C 97.389 179.607,96.989 176.885,96.825 175.017 C 96.432 170.534,96.749 170.771,90.984 170.658 C 84.662 170.535,85.276 169.712,84.975 178.701 C 84.841 182.728,84.535 189.007,84.296 192.655 C 83.456 205.477,83.565 206.011,87.176 206.797 C 87.651 206.900,88.559 207.278,89.193 207.636 C 89.827 207.994,91.031 208.432,91.868 208.609 C 92.706 208.787,93.896 209.190,94.514 209.505 C 95.131 209.820,96.780 210.265,98.179 210.493 C 99.577 210.722,101.330 211.181,102.076 211.514 C 102.965 211.911,104.550 212.221,106.687 212.417 C 108.477 212.581,110.915 212.972,112.104 213.286 C 116.695 214.498,132.057 214.553,138.407 213.380 C 139.711 213.139,141.880 212.747,143.228 212.510 C 144.575 212.273,146.303 211.817,147.068 211.497 C 147.832 211.178,149.466 210.739,150.698 210.523 C 152.122 210.272,153.336 209.859,154.031 209.387 C 154.632 208.979,155.347 208.646,155.620 208.646 C 155.892 208.646,156.617 208.305,157.230 207.889 C 157.843 207.473,158.863 206.950,159.496 206.727 C 160.129 206.503,160.909 206.078,161.231 205.782 C 161.553 205.485,162.328 205.031,162.953 204.773 C 163.579 204.515,164.422 203.993,164.827 203.612 C 166.218 202.303,167.623 201.003,170.120 198.716 C 171.496 197.455,172.622 196.275,172.622 196.095 C 172.622 195.914,172.899 195.520,173.236 195.218 C 173.574 194.916,174.094 194.150,174.393 193.516 C 174.692 192.882,175.244 191.945,175.620 191.433 C 175.995 190.922,176.389 190.043,176.494 189.479 C 176.600 188.916,176.995 188.000,177.373 187.443 C 177.800 186.815,178.127 185.809,178.237 184.786 C 178.334 183.882,178.681 182.298,179.008 181.268 C 180.764 175.729,179.826 162.901,177.273 157.531 C 176.810 156.559,176.344 155.382,176.237 154.915 C 176.129 154.448,175.694 153.653,175.269 153.148 C 174.843 152.644,174.042 151.539,173.487 150.694 C 171.080 147.026,165.877 142.703,161.383 140.638 C 160.670 140.310,159.762 139.855,159.366 139.626 C 158.540 139.150,158.007 138.885,156.196 138.053 C 155.483 137.725,154.575 137.272,154.179 137.048 C 152.544 136.121,149.068 134.621,148.127 134.436 C 147.572 134.327,146.680 133.986,146.146 133.678 C 145.611 133.370,144.260 132.926,143.144 132.691 C 142.028 132.457,140.715 132.021,140.226 131.723 C 139.737 131.426,138.559 131.024,137.608 130.831 C 136.657 130.638,135.295 130.190,134.582 129.836 C 133.869 129.482,132.637 129.034,131.844 128.840 C 131.052 128.646,130.014 128.248,129.539 127.956 C 129.063 127.665,127.836 127.210,126.812 126.946 C 125.788 126.682,124.604 126.219,124.180 125.917 C 123.756 125.615,122.714 125.221,121.863 125.040 C 121.013 124.859,119.969 124.466,119.544 124.165 C 119.118 123.865,118.214 123.423,117.534 123.183 C 116.855 122.943,116.036 122.505,115.714 122.208 C 115.393 121.912,114.631 121.463,114.020 121.212 C 113.410 120.961,112.584 120.462,112.183 120.104 C 110.707 118.784,108.781 116.997,108.501 116.688 C 108.343 116.513,107.855 116.004,107.417 115.558 C 106.979 115.112,106.423 114.188,106.182 113.505 C 105.941 112.823,105.478 111.981,105.153 111.635 C 103.483 109.858,103.459 97.119,105.122 95.297 C 105.437 94.951,105.967 94.085,106.300 93.372 C 107.438 90.934,112.712 85.591,113.981 85.591 C 114.163 85.591,114.950 85.256,115.729 84.846 C 121.240 81.951,131.640 80.137,138.092 80.946 C 139.728 81.151,142.985 81.427,145.330 81.559 C 148.801 81.755,149.813 81.914,150.769 82.412 C 151.415 82.749,152.924 83.227,154.122 83.475 C 156.023 83.868,158.763 85.045,159.868 85.943 C 160.467 86.430,160.770 88.122,161.096 92.795 C 161.267 95.252,161.665 98.494,161.979 100.000 C 162.294 101.506,162.630 103.710,162.726 104.899 C 162.989 108.142,162.850 108.069,168.741 108.069 C 174.959 108.069,174.423 108.637,174.697 101.765 C 174.816 98.813,175.108 94.452,175.347 92.075 C 176.768 77.935,176.568 74.779,174.207 74.120 C 173.415 73.899,171.988 73.353,171.037 72.907 C 170.086 72.461,168.827 72.015,168.238 71.916 C 167.650 71.817,166.483 71.426,165.645 71.048 C 164.807 70.670,163.111 70.212,161.876 70.029 C 160.640 69.847,159.052 69.442,158.345 69.129 C 157.555 68.780,155.588 68.398,153.242 68.139 C 151.142 67.907,148.710 67.509,147.839 67.254 C 145.025 66.431,135.781 66.105,129.319 66.602 M223.055 68.595 C 219.805 68.703,215.416 68.893,213.301 69.017 L 209.455 69.241 208.907 70.139 C 208.443 70.900,208.359 71.612,208.358 74.801 C 208.357 79.441,208.361 79.448,211.336 79.823 C 212.578 79.979,214.415 80.361,215.417 80.671 C 216.420 80.980,218.063 81.313,219.067 81.411 C 224.123 81.901,224.751 82.091,225.372 83.308 C 226.220 84.970,226.130 197.549,225.281 198.488 C 224.910 198.898,224.236 199.101,222.831 199.226 C 221.765 199.322,220.221 199.661,219.399 199.980 C 218.577 200.299,216.696 200.702,215.220 200.876 C 212.000 201.255,209.682 201.926,209.002 202.677 C 208.265 203.489,208.091 210.645,208.782 211.700 L 209.251 212.416 243.458 212.317 C 277.581 212.218,277.673 212.216,280.403 211.579 C 281.909 211.228,284.479 210.748,286.113 210.512 C 287.748 210.276,289.499 209.868,290.004 209.607 C 290.509 209.346,291.887 208.891,293.066 208.596 C 294.245 208.301,295.418 207.871,295.674 207.640 C 295.929 207.409,296.712 207.017,297.412 206.770 C 298.113 206.523,298.956 206.068,299.284 205.759 C 299.613 205.451,300.336 205.034,300.890 204.833 C 305.111 203.303,314.697 193.275,314.697 190.389 C 314.697 190.160,315.076 189.252,315.540 188.371 C 318.400 182.934,319.436 168.771,317.396 163.005 C 317.165 162.351,316.845 161.232,316.687 160.519 C 316.528 159.805,316.083 158.741,315.696 158.154 C 315.310 157.566,314.876 156.559,314.731 155.915 C 314.219 153.636,308.499 147.074,305.836 145.710 C 305.321 145.446,304.899 145.123,304.899 144.993 C 304.899 144.863,304.348 144.515,303.674 144.221 C 303.001 143.927,302.024 143.324,301.503 142.881 C 300.982 142.437,300.321 142.075,300.033 142.075 C 299.745 142.075,298.925 141.764,298.210 141.384 C 297.495 141.004,295.892 140.482,294.649 140.225 C 293.405 139.968,292.123 139.589,291.799 139.384 C 291.475 139.179,290.465 138.712,289.553 138.348 C 287.259 137.430,287.543 137.022,290.865 136.464 C 291.468 136.362,292.563 135.898,293.299 135.431 C 294.035 134.964,294.839 134.580,295.085 134.577 C 295.332 134.574,296.104 134.185,296.801 133.712 C 297.499 133.240,298.196 132.853,298.351 132.853 C 298.506 132.853,299.118 132.432,299.711 131.916 C 300.304 131.401,301.594 130.331,302.579 129.539 C 304.192 128.241,304.999 127.334,307.151 124.397 C 307.518 123.897,308.055 123.228,308.345 122.911 C 308.635 122.594,308.961 121.910,309.071 121.391 C 309.181 120.872,309.586 120.072,309.972 119.614 C 310.391 119.116,310.798 118.103,310.984 117.099 C 311.154 116.174,311.633 114.640,312.047 113.689 C 312.896 111.740,313.181 98.935,312.454 95.389 C 312.025 93.301,310.456 88.756,309.969 88.195 C 309.757 87.952,309.365 87.079,309.098 86.257 C 308.830 85.435,308.219 84.268,307.739 83.664 C 306.712 82.373,303.504 78.758,302.882 78.193 C 301.602 77.030,300.321 76.143,299.424 75.799 C 298.869 75.586,298.091 75.123,297.695 74.770 C 297.298 74.417,296.692 74.043,296.347 73.939 C 296.003 73.835,295.225 73.412,294.618 72.998 C 293.992 72.571,292.682 72.086,291.587 71.875 C 290.527 71.672,289.346 71.300,288.963 71.049 C 288.580 70.798,287.243 70.410,285.992 70.186 C 284.741 69.962,282.875 69.583,281.844 69.342 C 277.563 68.343,243.511 67.910,223.055 68.595 M267.053 81.851 C 270.341 82.042,272.615 82.322,273.826 82.685 C 274.828 82.986,276.507 83.374,277.557 83.549 C 278.607 83.723,280.228 84.252,281.159 84.725 C 282.091 85.197,282.995 85.585,283.169 85.587 C 283.342 85.589,283.729 85.861,284.027 86.191 C 284.326 86.521,285.027 86.981,285.585 87.213 C 287.435 87.983,291.293 92.315,292.065 94.490 C 292.269 95.064,292.715 96.005,293.057 96.581 C 293.470 97.277,293.773 98.487,293.959 100.184 C 294.113 101.588,294.368 103.356,294.524 104.111 C 294.731 105.108,294.695 106.295,294.396 108.434 C 294.168 110.056,293.901 112.124,293.802 113.029 C 293.690 114.047,293.359 115.060,292.933 115.688 C 292.554 116.246,292.108 117.208,291.942 117.826 C 291.344 120.047,285.224 126.279,282.997 126.935 C 282.601 127.051,281.813 127.460,281.246 127.843 C 280.680 128.226,279.383 128.785,278.365 129.085 C 277.346 129.386,275.963 129.837,275.291 130.087 C 272.498 131.128,260.630 132.276,252.651 132.276 L 245.216 132.277 244.798 131.277 C 244.037 129.457,244.188 82.902,244.957 82.133 C 245.632 81.457,257.618 81.305,267.053 81.851 M275.793 146.078 C 278.601 146.257,279.664 146.446,280.615 146.933 C 281.286 147.276,282.686 147.736,283.726 147.954 C 284.767 148.172,285.855 148.565,286.145 148.828 C 286.435 149.090,287.190 149.591,287.823 149.941 C 290.448 151.392,291.023 151.833,293.156 154.026 C 294.384 155.290,295.389 156.406,295.389 156.508 C 295.389 156.610,295.778 157.182,296.253 157.780 C 296.728 158.378,297.250 159.401,297.412 160.053 C 297.574 160.705,298.089 162.017,298.556 162.968 C 300.064 166.042,300.094 178.824,298.598 180.926 C 298.246 181.420,297.755 182.508,297.507 183.343 C 297.259 184.178,296.746 185.230,296.366 185.680 C 295.987 186.131,295.677 186.587,295.677 186.694 C 295.675 187.448,289.671 192.794,288.184 193.366 C 287.630 193.579,286.912 193.988,286.589 194.275 C 285.588 195.165,281.039 196.613,275.937 197.664 C 271.323 198.614,267.402 198.847,255.996 198.847 L 245.278 198.847 244.829 198.207 C 244.143 197.227,244.147 146.961,244.833 146.274 C 245.343 145.765,268.572 145.618,275.793 146.078 " stroke="none" fill="#2f9e8d" fill-rule="evenodd"></path><path id="path1" d="M0.000 144.092 L 0.000 288.184 200.000 288.184 L 400.000 288.184 400.000 144.092 L 400.000 0.000 200.000 0.000 L 0.000 0.000 0.000 144.092 M142.219 66.552 C 144.438 66.683,146.967 66.999,147.839 67.254 C 148.710 67.509,151.142 67.907,153.242 68.139 C 155.588 68.398,157.555 68.780,158.345 69.129 C 159.052 69.442,160.640 69.847,161.876 70.029 C 163.111 70.212,164.807 70.670,165.645 71.048 C 166.483 71.426,167.650 71.817,168.238 71.916 C 168.827 72.015,170.086 72.461,171.037 72.907 C 171.988 73.353,173.415 73.899,174.207 74.120 C 176.568 74.779,176.768 77.935,175.347 92.075 C 175.108 94.452,174.816 98.813,174.697 101.765 C 174.423 108.637,174.959 108.069,168.741 108.069 C 162.850 108.069,162.989 108.142,162.726 104.899 C 162.630 103.710,162.294 101.506,161.979 100.000 C 161.665 98.494,161.267 95.252,161.096 92.795 C 160.770 88.122,160.467 86.430,159.868 85.943 C 158.763 85.045,156.023 83.868,154.122 83.475 C 152.924 83.227,151.415 82.749,150.769 82.412 C 149.813 81.914,148.801 81.755,145.330 81.559 C 142.985 81.427,139.728 81.151,138.092 80.946 C 131.640 80.137,121.240 81.951,115.729 84.846 C 114.950 85.256,114.163 85.591,113.981 85.591 C 112.712 85.591,107.438 90.934,106.300 93.372 C 105.967 94.085,105.437 94.951,105.122 95.297 C 103.459 97.119,103.483 109.858,105.153 111.635 C 105.478 111.981,105.941 112.823,106.182 113.505 C 106.423 114.188,106.979 115.112,107.417 115.558 C 107.855 116.004,108.343 116.513,108.501 116.688 C 108.781 116.997,110.707 118.784,112.183 120.104 C 112.584 120.462,113.410 120.961,114.020 121.212 C 114.631 121.463,115.393 121.912,115.714 122.208 C 116.036 122.505,116.855 122.943,117.534 123.183 C 118.214 123.423,119.118 123.865,119.544 124.165 C 119.969 124.466,121.013 124.859,121.863 125.040 C 122.714 125.221,123.756 125.615,124.180 125.917 C 124.604 126.219,125.788 126.682,126.812 126.946 C 127.836 127.210,129.063 127.665,129.539 127.956 C 130.014 128.248,131.052 128.646,131.844 128.840 C 132.637 129.034,133.869 129.482,134.582 129.836 C 135.295 130.190,136.657 130.638,137.608 130.831 C 138.559 131.024,139.737 131.426,140.226 131.723 C 140.715 132.021,142.028 132.457,143.144 132.691 C 144.260 132.926,145.611 133.370,146.146 133.678 C 146.680 133.986,147.572 134.327,148.127 134.436 C 149.068 134.621,152.544 136.121,154.179 137.048 C 154.575 137.272,155.483 137.725,156.196 138.053 C 158.007 138.885,158.540 139.150,159.366 139.626 C 159.762 139.855,160.670 140.310,161.383 140.638 C 165.877 142.703,171.080 147.026,173.487 150.694 C 174.042 151.539,174.843 152.644,175.269 153.148 C 175.694 153.653,176.129 154.448,176.237 154.915 C 176.344 155.382,176.810 156.559,177.273 157.531 C 179.826 162.901,180.764 175.729,179.008 181.268 C 178.681 182.298,178.334 183.882,178.237 184.786 C 178.127 185.809,177.800 186.815,177.373 187.443 C 176.995 188.000,176.600 188.916,176.494 189.479 C 176.389 190.043,175.995 190.922,175.620 191.433 C 175.244 191.945,174.692 192.882,174.393 193.516 C 174.094 194.150,173.574 194.916,173.236 195.218 C 172.899 195.520,172.622 195.914,172.622 196.095 C 172.622 196.275,171.496 197.455,170.120 198.716 C 167.623 201.003,166.218 202.303,164.827 203.612 C 164.422 203.993,163.579 204.515,162.953 204.773 C 162.328 205.031,161.553 205.485,161.231 205.782 C 160.909 206.078,160.129 206.503,159.496 206.727 C 158.863 206.950,157.843 207.473,157.230 207.889 C 156.617 208.305,155.892 208.646,155.620 208.646 C 155.347 208.646,154.632 208.979,154.031 209.387 C 153.336 209.859,152.122 210.272,150.698 210.523 C 149.466 210.739,147.832 211.178,147.068 211.497 C 146.303 211.817,144.575 212.273,143.228 212.510 C 141.880 212.747,139.711 213.139,138.407 213.380 C 132.057 214.553,116.695 214.498,112.104 213.286 C 110.915 212.972,108.477 212.581,106.687 212.417 C 104.550 212.221,102.965 211.911,102.076 211.514 C 101.330 211.181,99.577 210.722,98.179 210.493 C 96.780 210.265,95.131 209.820,94.514 209.505 C 93.896 209.190,92.706 208.787,91.868 208.609 C 91.031 208.432,89.827 207.994,89.193 207.636 C 88.559 207.278,87.651 206.900,87.176 206.797 C 83.565 206.011,83.456 205.477,84.296 192.655 C 84.535 189.007,84.841 182.728,84.975 178.701 C 85.276 169.712,84.662 170.535,90.984 170.658 C 96.749 170.771,96.432 170.534,96.825 175.017 C 96.989 176.885,97.389 179.607,97.714 181.066 C 98.040 182.524,98.435 185.663,98.593 188.040 C 98.856 192.010,98.934 192.410,99.545 192.939 C 99.910 193.256,100.428 193.859,100.695 194.279 C 101.018 194.787,101.537 195.106,102.247 195.233 C 102.834 195.339,103.920 195.737,104.660 196.118 C 105.400 196.500,106.892 196.949,107.974 197.116 C 109.057 197.283,110.556 197.679,111.305 197.995 C 112.749 198.604,114.245 198.828,121.975 199.593 C 125.885 199.980,127.310 200.010,129.468 199.753 C 130.934 199.578,133.667 199.300,135.542 199.135 C 137.993 198.919,139.424 198.636,140.630 198.128 C 141.554 197.740,142.872 197.339,143.561 197.237 C 144.249 197.135,145.267 196.748,145.821 196.377 C 146.376 196.005,147.393 195.503,148.081 195.260 C 148.769 195.018,149.719 194.494,150.192 194.096 C 150.666 193.698,151.166 193.372,151.305 193.372 C 151.952 193.372,156.948 188.659,157.395 187.627 C 157.658 187.019,158.022 186.430,158.203 186.318 C 158.384 186.206,158.847 185.445,159.231 184.628 C 159.615 183.810,160.192 182.689,160.512 182.137 C 160.904 181.462,161.096 180.613,161.097 179.543 C 161.098 178.669,161.226 177.174,161.381 176.221 C 161.834 173.427,161.125 167.500,160.167 166.085 C 159.758 165.480,159.332 164.677,159.219 164.299 C 158.891 163.197,156.628 160.409,154.830 158.892 C 152.355 156.803,150.786 155.620,150.492 155.620 C 150.348 155.620,149.680 155.221,149.006 154.733 C 148.333 154.245,147.199 153.670,146.486 153.456 C 145.774 153.241,144.976 152.873,144.713 152.638 C 144.451 152.403,143.410 151.997,142.401 151.737 C 141.391 151.476,140.224 151.016,139.807 150.714 C 139.390 150.411,138.401 150.024,137.608 149.853 C 136.816 149.682,135.584 149.240,134.870 148.872 C 134.157 148.503,132.870 148.051,132.010 147.868 C 131.150 147.685,130.022 147.273,129.505 146.953 C 128.987 146.633,127.763 146.242,126.785 146.085 C 125.808 145.927,124.401 145.491,123.659 145.115 C 122.918 144.739,121.576 144.296,120.678 144.130 C 119.779 143.964,118.553 143.580,117.952 143.276 C 117.351 142.973,116.130 142.515,115.239 142.258 C 114.349 142.002,113.458 141.597,113.260 141.358 C 113.061 141.119,112.239 140.728,111.433 140.489 C 110.627 140.249,109.508 139.744,108.946 139.366 C 108.384 138.988,107.421 138.519,106.805 138.324 C 106.189 138.129,105.231 137.661,104.676 137.285 C 104.120 136.908,103.453 136.599,103.192 136.599 C 102.652 136.599,99.992 135.008,98.703 133.913 C 95.529 131.217,94.530 130.250,92.832 128.225 C 89.830 124.648,89.599 124.296,89.037 122.440 C 88.746 121.477,88.292 120.451,88.030 120.161 C 85.957 117.871,84.781 102.974,86.263 97.782 C 86.661 96.386,87.073 94.605,87.179 93.822 C 87.285 93.040,87.749 91.693,88.210 90.828 C 88.672 89.963,89.049 89.025,89.049 88.742 C 89.049 88.460,89.375 87.841,89.773 87.368 C 90.172 86.894,90.702 86.018,90.952 85.420 C 91.202 84.822,91.751 83.983,92.173 83.556 C 92.594 83.129,94.366 81.326,96.110 79.549 C 98.068 77.554,99.735 76.118,100.473 75.792 C 101.129 75.501,101.760 75.111,101.875 74.925 C 101.991 74.738,102.880 74.206,103.852 73.743 C 104.824 73.280,106.695 72.321,108.010 71.612 C 109.625 70.742,111.015 70.226,112.294 70.022 C 113.334 69.855,114.701 69.457,115.329 69.136 C 115.958 68.815,117.532 68.373,118.827 68.154 C 120.122 67.935,122.315 67.549,123.700 67.298 C 128.660 66.397,135.159 66.135,142.219 66.552 M276.513 68.605 C 278.415 68.770,280.814 69.102,281.844 69.342 C 282.875 69.583,284.741 69.962,285.992 70.186 C 287.243 70.410,288.580 70.798,288.963 71.049 C 289.346 71.300,290.527 71.672,291.587 71.875 C 292.682 72.086,293.992 72.571,294.618 72.998 C 295.225 73.412,296.003 73.835,296.347 73.939 C 296.692 74.043,297.298 74.417,297.695 74.770 C 298.091 75.123,298.869 75.586,299.424 75.799 C 300.321 76.143,301.602 77.030,302.882 78.193 C 303.504 78.758,306.712 82.373,307.739 83.664 C 308.219 84.268,308.830 85.435,309.098 86.257 C 309.365 87.079,309.757 87.952,309.969 88.195 C 310.456 88.756,312.025 93.301,312.454 95.389 C 313.181 98.935,312.896 111.740,312.047 113.689 C 311.633 114.640,311.154 116.174,310.984 117.099 C 310.798 118.103,310.391 119.116,309.972 119.614 C 309.586 120.072,309.181 120.872,309.071 121.391 C 308.961 121.910,308.635 122.594,308.345 122.911 C 308.055 123.228,307.518 123.897,307.151 124.397 C 304.999 127.334,304.192 128.241,302.579 129.539 C 301.594 130.331,300.304 131.401,299.711 131.916 C 299.118 132.432,298.506 132.853,298.351 132.853 C 298.196 132.853,297.499 133.240,296.801 133.712 C 296.104 134.185,295.332 134.574,295.085 134.577 C 294.839 134.580,294.035 134.964,293.299 135.431 C 292.563 135.898,291.468 136.362,290.865 136.464 C 287.543 137.022,287.259 137.430,289.553 138.348 C 290.465 138.712,291.475 139.179,291.799 139.384 C 292.123 139.589,293.405 139.968,294.649 140.225 C 295.892 140.482,297.495 141.004,298.210 141.384 C 298.925 141.764,299.745 142.075,300.033 142.075 C 300.321 142.075,300.982 142.437,301.503 142.881 C 302.024 143.324,303.001 143.927,303.674 144.221 C 304.348 144.515,304.899 144.863,304.899 144.993 C 304.899 145.123,305.321 145.446,305.836 145.710 C 308.499 147.074,314.219 153.636,314.731 155.915 C 314.876 156.559,315.310 157.566,315.696 158.154 C 316.083 158.741,316.528 159.805,316.687 160.519 C 316.845 161.232,317.165 162.351,317.396 163.005 C 319.436 168.771,318.400 182.934,315.540 188.371 C 315.076 189.252,314.697 190.160,314.697 190.389 C 314.697 193.275,305.111 203.303,300.890 204.833 C 300.336 205.034,299.613 205.451,299.284 205.759 C 298.956 206.068,298.113 206.523,297.412 206.770 C 296.712 207.017,295.929 207.409,295.674 207.640 C 295.418 207.871,294.245 208.301,293.066 208.596 C 291.887 208.891,290.509 209.346,290.004 209.607 C 289.499 209.868,287.748 210.276,286.113 210.512 C 284.479 210.748,281.909 211.228,280.403 211.579 C 277.673 212.216,277.581 212.218,243.458 212.317 L 209.251 212.416 208.782 211.700 C 208.091 210.645,208.265 203.489,209.002 202.677 C 209.682 201.926,212.000 201.255,215.220 200.876 C 216.696 200.702,218.577 200.299,219.399 199.980 C 220.221 199.661,221.765 199.322,222.831 199.226 C 224.236 199.101,224.910 198.898,225.281 198.488 C 226.130 197.549,226.220 84.970,225.372 83.308 C 224.751 82.091,224.123 81.901,219.067 81.411 C 218.063 81.313,216.420 80.980,215.417 80.671 C 214.415 80.361,212.578 79.979,211.336 79.823 C 208.361 79.448,208.357 79.441,208.358 74.801 C 208.359 71.612,208.443 70.900,208.907 70.139 L 209.455 69.241 213.301 69.017 C 225.027 68.333,269.986 68.040,276.513 68.605 M244.957 82.133 C 244.188 82.902,244.037 129.457,244.798 131.277 L 245.216 132.277 252.651 132.276 C 260.630 132.276,272.498 131.128,275.291 130.087 C 275.963 129.837,277.346 129.386,278.365 129.085 C 279.383 128.785,280.680 128.226,281.246 127.843 C 281.813 127.460,282.601 127.051,282.997 126.935 C 285.224 126.279,291.344 120.047,291.942 117.826 C 292.108 117.208,292.554 116.246,292.933 115.688 C 293.359 115.060,293.690 114.047,293.802 113.029 C 293.901 112.124,294.168 110.056,294.396 108.434 C 294.695 106.295,294.731 105.108,294.524 104.111 C 294.368 103.356,294.113 101.588,293.959 100.184 C 293.773 98.487,293.470 97.277,293.057 96.581 C 292.715 96.005,292.269 95.064,292.065 94.490 C 291.293 92.315,287.435 87.983,285.585 87.213 C 285.027 86.981,284.326 86.521,284.027 86.191 C 283.729 85.861,283.342 85.589,283.169 85.587 C 282.995 85.585,282.091 85.197,281.159 84.725 C 280.228 84.252,278.607 83.723,277.557 83.549 C 276.507 83.374,274.828 82.986,273.826 82.685 C 269.800 81.477,246.066 81.023,244.957 82.133 M244.833 146.274 C 244.147 146.961,244.143 197.227,244.829 198.207 L 245.278 198.847 255.996 198.847 C 267.402 198.847,271.323 198.614,275.937 197.664 C 281.039 196.613,285.588 195.165,286.589 194.275 C 286.912 193.988,287.630 193.579,288.184 193.366 C 289.671 192.794,295.675 187.448,295.677 186.694 C 295.677 186.587,295.987 186.131,296.366 185.680 C 296.746 185.230,297.259 184.178,297.507 183.343 C 297.755 182.508,298.246 181.420,298.598 180.926 C 300.094 178.824,300.064 166.042,298.556 162.968 C 298.089 162.017,297.574 160.705,297.412 160.053 C 297.250 159.401,296.728 158.378,296.253 157.780 C 295.778 157.182,295.389 156.610,295.389 156.508 C 295.389 156.406,294.384 155.290,293.156 154.026 C 291.023 151.833,290.448 151.392,287.823 149.941 C 287.190 149.591,286.435 149.090,286.145 148.828 C 285.855 148.565,284.767 148.172,283.726 147.954 C 282.686 147.736,281.286 147.276,280.615 146.933 C 278.368 145.782,245.922 145.185,244.833 146.274 " stroke="none" fill="#dbfbd4" fill-rule="evenodd"></path></g></svg>